<svg width="69" height="28" viewBox="0 0 69 28" fill="none" xmlns="http://www.w3.org/2000/svg">
    <path d="M16.056 6.16V22H11.928V6.16H16.056ZM5.88 6.16V22H1.752V6.16H5.88ZM14.136 12.424V15.616H3.768V12.424H14.136ZM33.9645 22H29.7165L28.6125 18.424H23.1885L22.0605 22H17.9085L23.4765 6.16H28.4205L33.9645 22ZM23.9565 15.616H27.8445L25.9005 9.208L23.9565 15.616Z"
          fill="white"/>
    <path d="M50.0867 6.16V22H45.5027L40.5827 13.432L39.3827 11.08H39.3587L39.4547 14.008V22H35.8067V6.16H40.3907L45.3107 14.728L46.5107 17.08H46.5347L46.4387 14.152V6.16H50.0867ZM67.9958 22H63.7478L62.6438 18.424H57.2198L56.0918 22H51.9398L57.5078 6.16H62.4518L67.9958 22ZM57.9878 15.616H61.8758L59.9318 9.208L57.9878 15.616Z"
          fill="#FB8500"/>
</svg>
